HIERARCHY
ROOT Hips
{
	OFFSET -3.958830 18.904000 13.208200
	CHANNELS 6 Xposition Yposition Zposition Zrotation Yrotation Xrotation 
	JOINT LHipJoint
	{
		OFFSET 0.000000 0.000000 0.000000
		CHANNELS 3 Zrotation Yrotation Xrotation
		JOINT LeftUpLeg
		{
			OFFSET 1.800000 -1.400000 0.085000
			CHANNELS 3 Zrotation Yrotation Xrotation
			JOINT LeftLeg
			{
				OFFSET 2.215000 -6.000000 0.000000
				CHANNELS 3 Zrotation Yrotation Xrotation
				JOINT LeftFoot
				{
					OFFSET 2.500000 -6.900000 0.000000
					CHANNELS 3 Zrotation Yrotation Xrotation
					JOINT LeftToeBase
					{
						OFFSET 0.200000 -0.500000 1.950000
						CHANNELS 3 Zrotation Yrotation Xrotation
						End Site
						{
							OFFSET 0.000000 0.000000 0.000000
						}
					}
				}
			}
		}
	}
	JOINT RHipJoint
	{
		OFFSET 0.000000 0.000000 0.000000
		CHANNELS 3 Zrotation Yrotation Xrotation
		JOINT RightUpLeg
		{
			OFFSET -1.800000 -1.400000 0.085000
			CHANNELS 3 Zrotation Yrotation Xrotation
			JOINT RightLeg
			{
				OFFSET -2.215000 -6.000000 0.000000
				CHANNELS 3 Zrotation Yrotation Xrotation
				JOINT RightFoot
				{
					OFFSET -2.500000 -6.900000 0.000000
					CHANNELS 3 Zrotation Yrotation Xrotation
					JOINT RightToeBase
					{
						OFFSET -0.200000 -0.500000 1.950000
						CHANNELS 3 Zrotation Yrotation Xrotation
						End Site
						{
							OFFSET 0.000000 0.000000 0.000000
						}
					}
				}
			}
		}
	}
	JOINT LowerBack
	{
		OFFSET 0.000000 0.000000 0.000000
		CHANNELS 3 Zrotation Yrotation Xrotation
		JOINT Spine
		{
			OFFSET -0.087000 1.940000 -0.288900
			CHANNELS 3 Zrotation Yrotation Xrotation
			JOINT Spine1
			{
				OFFSET 0.000000 1.950000 0.060000
				CHANNELS 3 Zrotation Yrotation Xrotation
				JOINT Neck
				{
					OFFSET 0.000000 0.000000 0.000000
					CHANNELS 3 Zrotation Yrotation Xrotation
					JOINT Neck1
					{
						OFFSET 0.000000 1.600000 0.340000
						CHANNELS 3 Zrotation Yrotation Xrotation
						JOINT Head
						{
							OFFSET 0.000000 1.667000 -0.240000
							CHANNELS 3 Zrotation Yrotation Xrotation
							End Site
							{
								OFFSET 0.000000 0.000000 0.000000
							}
						}
					}
				}
				JOINT LeftShoulder
				{
					OFFSET 0.000000 0.000000 0.000000
					CHANNELS 3 Zrotation Yrotation Xrotation
					JOINT LeftArm
					{
						OFFSET 2.700000 1.550000 -0.730000
						CHANNELS 3 Zrotation Yrotation Xrotation
						JOINT LeftForeArm
						{
							OFFSET 5.450000 0.000000 0.000000
							CHANNELS 3 Zrotation Yrotation Xrotation
							JOINT LeftHand
							{
								OFFSET 3.450000 0.000000 0.000000
								CHANNELS 3 Zrotation Yrotation Xrotation
								JOINT LeftHandIndex1
								{
									OFFSET 0.750000 0.000000 0.000000
									CHANNELS 3 Zrotation Yrotation Xrotation
									End Site
									{
										OFFSET 0.000000 0.000000 0.000000
									}
								}
							}
						}
					}
				}
				JOINT RightShoulder
				{
					OFFSET 0.000000 0.000000 0.000000
					CHANNELS 3 Zrotation Yrotation Xrotation
					JOINT RightArm
					{
						OFFSET -2.700000 1.550000 -0.730000
						CHANNELS 3 Zrotation Yrotation Xrotation
						JOINT RightForeArm
						{
							OFFSET -5.450000 0.000000 0.000000
							CHANNELS 3 Zrotation Yrotation Xrotation
							JOINT RightHand
							{
								OFFSET -3.450000 0.000000 0.000000
								CHANNELS 3 Zrotation Yrotation Xrotation
								JOINT RightHandIndex1
								{
									OFFSET -0.750000 0.000000 0.000000
									CHANNELS 3 Zrotation Yrotation Xrotation
									End Site
									{
										OFFSET 0.000000 0.000000 0.000000
									}
								}
							}
						}
					}
				}
			}
		}
	}
}
MOTION
Frames: 8
Frame Time: 0.016667
-1.024510 17.608870 -2.408670 39.244723 -55.198795 -48.191510 -15.834779 9.557167 7.311869 26.817390 0.042740 -56.439193 -29.468106 26.789235 43.554530 1.705183 12.380122 0.219717 0.001480 -0.025650 0.060420 18.263819 -9.124984 1.420656 -21.051759 1.189834 8.940233 1.988128 -5.149266 5.275802 -0.566963 -5.078389 2.613625 -0.099370 -0.092330 -0.034060 -2.107027 -1.993425 -9.450183 -13.692890 10.471274 28.870588 -3.346887 9.255804 13.577773 1.945104 -3.940304 -16.054681 -14.358794 6.562646 55.449431 -0.097170 1.367190 6.070580 -1.600384 -1.369815 5.877866 0.683747 20.008102 -1.197401 -3.562076 5.322995 -1.444648 -3.715385 2.802769 0.138460 -0.119140 0.105800 -0.026870 -1.918194 10.363933 12.348901 -2.073964 -9.505383 -0.365348 1.761381 -3.144050 -0.447121 3.048854 -0.880736 0.019870 -0.018910 -0.016240 -0.007440 
-1.073310 17.682610 -2.420590 41.079640 -54.554472 -49.998350 -15.931595 9.365341 7.340110 29.401635 2.698531 -56.833321 -27.885499 25.841594 41.605106 1.536187 12.069699 0.257939 0.037430 0.020390 0.077210 18.252995 -8.833552 1.425790 -22.297529 1.642763 9.415562 1.579224 -4.916699 3.175674 -0.615495 -5.176729 2.563837 -0.071850 -0.111400 -0.026410 -1.962148 -2.184375 -9.469757 -15.422342 11.343771 26.948393 -2.863678 10.091391 14.999665 1.794532 -4.054263 -15.915832 -15.469517 7.108990 57.736063 -0.109370 0.973020 5.838540 0.310686 -1.315175 5.584950 5.885203 19.133646 -0.227594 -3.022755 2.535544 -1.098362 -3.609379 2.894134 0.139890 -0.129480 0.122680 -0.024260 -3.651331 10.743045 12.113479 -8.052434 -9.271031 0.241828 3.062527 -2.530743 -0.601035 2.967712 -0.911724 0.037820 -0.020990 -0.025280 -0.004610 
-1.131030 17.703780 -2.447890 41.662941 -53.313027 -49.890356 -15.992988 9.295855 7.315411 30.693123 3.924881 -56.389080 -28.280915 24.490317 37.915582 1.375779 11.589479 0.360219 0.081650 0.072870 0.116910 18.229613 -8.610410 1.474291 -23.255203 1.950596 9.125551 1.872230 -4.781218 1.493772 -0.652724 -5.193659 2.542037 -0.043920 -0.145730 -0.028700 -1.904275 -2.328986 -9.431445 -17.471572 11.787984 24.892752 -2.761407 10.305238 15.819735 1.767746 -4.074411 -16.318758 -16.243209 7.561132 59.658555 -0.109800 0.893490 4.686770 3.390543 -1.616441 5.710826 10.168852 16.852736 0.291103 -0.791009 2.394207 -0.888127 -3.597889 2.852709 0.166750 -0.156080 0.157230 -0.024730 -6.641060 11.448676 12.339747 -11.424413 -7.077704 0.230411 2.902579 -4.662087 -0.757069 3.000526 -0.816075 0.048000 -0.008480 -0.043220 -0.013000 
-1.154870 17.709370 -2.481370 42.384477 -51.680345 -50.578506 -16.038338 9.023530 7.602659 32.551975 4.832050 -57.608650 -32.251005 24.129139 33.902686 1.419049 11.449252 0.431516 0.068240 0.068050 0.080950 18.243567 -8.402372 1.389097 -24.678136 2.299088 8.919168 1.909135 -4.784424 1.210986 -0.647726 -5.225247 2.534698 -0.054220 -0.123450 -0.052720 -1.910921 -2.390661 -9.528262 -19.715827 12.431701 25.003015 -2.834433 10.498992 16.262741 1.541111 -4.360454 -17.158164 -17.133952 7.724933 59.594244 1.914210 -0.447860 4.916360 7.355182 -2.286949 6.289340 13.971353 15.085140 0.440145 0.005318 2.201530 -0.812351 -3.581979 2.782278 0.165300 -0.171720 0.150480 -0.007870 -10.091659 13.009030 12.766136 -15.205752 -6.928308 0.120313 5.657049 -5.983993 -1.269327 2.953052 -0.666470 0.044560 0.014560 -0.043550 0.011350 
-1.139300 17.690190 -2.507820 43.707069 -50.759317 -52.147415 -16.014513 9.048770 7.636815 33.186812 4.801720 -55.554315 -37.746666 26.920915 34.261286 1.681903 11.999371 0.316326 0.069590 0.079310 0.050230 18.258083 -8.415658 1.270067 -26.107748 2.327482 8.162087 1.622700 -4.881914 2.303128 -0.621117 -5.193297 2.532064 -0.044840 -0.101070 -0.063480 -1.943925 -2.462756 -9.521243 -21.483949 12.576268 25.398053 -3.054300 10.520544 16.648817 1.285782 -4.829429 -17.854225 -18.336901 8.534003 58.866168 3.916960 -1.099100 4.381880 10.450861 -2.365036 6.604334 17.278786 13.268707 0.284010 2.688618 3.538148 -0.790987 -3.665345 2.671262 0.168490 -0.181570 0.143360 0.005280 -12.632583 13.976831 13.141185 -19.012477 -6.149566 0.058562 1.868849 -6.203448 -0.881753 3.021425 -0.556407 0.039500 0.033500 -0.036260 0.028320 
-1.167260 17.653590 -2.524810 43.302999 -49.782984 -51.248414 -15.948303 9.397845 7.372494 30.445317 2.794046 -54.458673 -36.854492 27.864399 36.863030 1.766189 12.118179 0.276962 0.095310 0.125550 0.039270 18.237119 -8.569258 1.308002 -26.087068 2.198042 7.541843 1.297214 -4.818615 2.729716 -0.615303 -5.075274 2.568136 -0.030190 -0.106960 -0.077520 -2.008545 -2.567037 -9.331845 -22.540905 12.077516 24.032234 -3.413737 10.327415 16.902311 1.065585 -4.675073 -18.924502 -18.851802 10.259200 61.210246 6.825200 -0.990500 4.644010 13.851593 -3.413043 7.055648 21.511325 11.117138 -0.057557 4.456054 4.825992 -0.811970 -3.712621 2.565843 0.184770 -0.211400 0.165190 0.022430 -15.436627 15.210113 13.215111 -22.330497 -5.069818 0.022318 -0.929699 -5.195046 -0.528794 3.056143 -0.514614 0.051560 0.038920 -0.051070 0.044310 
-1.238010 17.624460 -2.481930 42.963057 -50.271424 -52.015167 -15.868729 9.847184 6.889841 27.519102 1.236929 -50.705863 -34.622775 29.366419 41.304486 1.890166 12.467213 0.169485 0.146030 0.195230 0.092860 18.202149 -8.800715 1.448041 -25.511395 1.949252 8.878432 1.170906 -4.931935 2.822581 -0.688539 -5.148852 2.546658 -0.004550 -0.157070 -0.080390 -2.039241 -2.627813 -9.082900 -21.806789 11.303989 23.211183 -4.011360 10.742010 17.351719 1.558809 -4.577460 -19.587814 -19.318718 11.265571 64.070344 6.199870 0.087510 4.051370 15.551054 -4.938595 6.896375 25.965473 9.362780 -0.496454 7.937486 4.424314 -0.557398 -3.748725 2.540312 0.209700 -0.239200 0.218090 0.027880 -17.948232 17.212930 12.681016 -25.986882 -3.520415 -0.613394 -3.922383 -5.416479 -0.337590 3.125009 -0.506287 0.072040 0.043610 -0.087960 0.035590 
-1.268550 17.567920 -2.413140 37.366874 -50.938654 -47.000011 -15.693220 11.056470 5.656332 17.721997 -3.324838 -41.340695 -30.020857 26.672903 43.221570 1.815667 11.882551 0.340546 0.125260 0.152150 0.115150 18.059855 -9.460244 1.873243 -22.112119 1.073537 9.010865 1.565363 -4.897430 2.903735 -0.667250 -5.027434 2.609996 -0.021330 -0.167530 -0.071540 -2.079447 -2.707210 -8.431999 -16.682485 8.818023 21.367133 -5.072173 10.309713 18.248164 2.522021 -4.417585 -19.705146 -19.790121 11.044748 67.745157 2.936000 -0.033930 5.946730 17.200088 -6.387319 6.358400 28.721636 5.684605 -1.095963 11.330489 4.035209 -0.344263 -3.803416 2.595945 0.197630 -0.216510 0.207090 0.003950 -21.165812 18.519833 11.490556 -29.159317 -2.447527 -0.840628 -6.548078 -3.277131 -0.114008 3.076355 -0.674985 0.066940 0.033190 -0.073000 0.016810 
